<mxfile host="app.diagrams.net" modified="2023-06-09T03:52:52.300Z" agent="Mozilla/5.0 (Windows NT 10.0; Win64; x64) AppleWebKit/537.36 (KHTML, like Gecko) Chrome/114.0.0.0 Safari/537.36" etag="v7v3fqNioirVSxS7iigx" version="21.3.8" type="device">
  <diagram name="Página-1" id="SLNa2xcsbzxxYzla1GnT">
    <mxGraphModel dx="1427" dy="327" grid="1" gridSize="10" guides="1" tooltips="1" connect="1" arrows="1" fold="1" page="1" pageScale="1" pageWidth="827" pageHeight="1169" math="0" shadow="0">
      <root>
        <mxCell id="0" />
        <mxCell id="1" parent="0" />
        <mxCell id="sKR88UAGinRUUBGoJXxX-2" value="id" style="ellipse;whiteSpace=wrap;html=1;" vertex="1" parent="1">
          <mxGeometry x="-210" y="300" width="50" height="30" as="geometry" />
        </mxCell>
        <mxCell id="sKR88UAGinRUUBGoJXxX-5" value="" style="endArrow=classic;html=1;rounded=0;exitX=1;exitY=0;exitDx=0;exitDy=0;entryX=0;entryY=1;entryDx=0;entryDy=0;" edge="1" parent="1" target="sKR88UAGinRUUBGoJXxX-2">
          <mxGeometry width="50" height="50" relative="1" as="geometry">
            <mxPoint x="-210" y="370" as="sourcePoint" />
            <mxPoint x="-100" y="420" as="targetPoint" />
          </mxGeometry>
        </mxCell>
        <mxCell id="sKR88UAGinRUUBGoJXxX-6" value="placa" style="ellipse;whiteSpace=wrap;html=1;" vertex="1" parent="1">
          <mxGeometry x="-154.95999999999998" y="420" width="50" height="30" as="geometry" />
        </mxCell>
        <mxCell id="sKR88UAGinRUUBGoJXxX-7" value="" style="endArrow=classic;html=1;rounded=0;exitX=0.868;exitY=0.625;exitDx=0;exitDy=0;entryX=0;entryY=0;entryDx=0;entryDy=0;exitPerimeter=0;" edge="1" parent="1" target="sKR88UAGinRUUBGoJXxX-6">
          <mxGeometry width="50" height="50" relative="1" as="geometry">
            <mxPoint x="-205.0399999999999" y="405" as="sourcePoint" />
            <mxPoint x="-172.2" y="351" as="targetPoint" />
          </mxGeometry>
        </mxCell>
        <mxCell id="sKR88UAGinRUUBGoJXxX-8" value="motor" style="ellipse;whiteSpace=wrap;html=1;" vertex="1" parent="1">
          <mxGeometry x="-350" y="320" width="50" height="30" as="geometry" />
        </mxCell>
        <mxCell id="sKR88UAGinRUUBGoJXxX-11" value="" style="endArrow=classic;html=1;rounded=0;entryX=1;entryY=1;entryDx=0;entryDy=0;" edge="1" parent="1" target="sKR88UAGinRUUBGoJXxX-8">
          <mxGeometry width="50" height="50" relative="1" as="geometry">
            <mxPoint x="-270" y="370" as="sourcePoint" />
            <mxPoint x="-100" y="420" as="targetPoint" />
          </mxGeometry>
        </mxCell>
        <mxCell id="sKR88UAGinRUUBGoJXxX-12" value="modelo" style="ellipse;whiteSpace=wrap;html=1;" vertex="1" parent="1">
          <mxGeometry x="-194.95999999999998" y="445" width="50" height="30" as="geometry" />
        </mxCell>
        <mxCell id="sKR88UAGinRUUBGoJXxX-13" value="" style="endArrow=classic;html=1;rounded=0;exitX=1;exitY=1;exitDx=0;exitDy=0;entryX=0;entryY=0;entryDx=0;entryDy=0;" edge="1" parent="1" target="sKR88UAGinRUUBGoJXxX-12">
          <mxGeometry width="50" height="50" relative="1" as="geometry">
            <mxPoint x="-210" y="410.0000000000001" as="sourcePoint" />
            <mxPoint x="-85.75999999999999" y="415" as="targetPoint" />
          </mxGeometry>
        </mxCell>
        <mxCell id="sKR88UAGinRUUBGoJXxX-14" value="año" style="ellipse;whiteSpace=wrap;html=1;" vertex="1" parent="1">
          <mxGeometry x="-370" y="415" width="50" height="30" as="geometry" />
        </mxCell>
        <mxCell id="sKR88UAGinRUUBGoJXxX-15" value="categoria" style="ellipse;whiteSpace=wrap;html=1;" vertex="1" parent="1">
          <mxGeometry x="-330" y="445" width="60" height="30" as="geometry" />
        </mxCell>
        <mxCell id="sKR88UAGinRUUBGoJXxX-16" value="" style="endArrow=classic;html=1;rounded=0;exitX=0;exitY=1;exitDx=0;exitDy=0;entryX=0.5;entryY=0;entryDx=0;entryDy=0;" edge="1" parent="1" target="sKR88UAGinRUUBGoJXxX-15">
          <mxGeometry width="50" height="50" relative="1" as="geometry">
            <mxPoint x="-270" y="410.0000000000001" as="sourcePoint" />
            <mxPoint x="-100" y="360" as="targetPoint" />
          </mxGeometry>
        </mxCell>
        <mxCell id="sKR88UAGinRUUBGoJXxX-17" value="" style="endArrow=classic;html=1;rounded=0;exitX=0.115;exitY=0.618;exitDx=0;exitDy=0;exitPerimeter=0;entryX=1;entryY=0;entryDx=0;entryDy=0;" edge="1" parent="1" target="sKR88UAGinRUUBGoJXxX-14">
          <mxGeometry width="50" height="50" relative="1" as="geometry">
            <mxPoint x="-286.20000000000005" y="399.43999999999994" as="sourcePoint" />
            <mxPoint x="-340" y="350" as="targetPoint" />
          </mxGeometry>
        </mxCell>
        <mxCell id="sKR88UAGinRUUBGoJXxX-18" value="&lt;u&gt;conductor&lt;/u&gt;" style="ellipse;whiteSpace=wrap;html=1;" vertex="1" parent="1">
          <mxGeometry x="-144.95999999999998" y="330" width="90" height="30" as="geometry" />
        </mxCell>
        <mxCell id="sKR88UAGinRUUBGoJXxX-19" value="" style="endArrow=classic;html=1;rounded=0;exitX=0.892;exitY=0.404;exitDx=0;exitDy=0;exitPerimeter=0;entryX=0;entryY=0.5;entryDx=0;entryDy=0;" edge="1" parent="1" target="sKR88UAGinRUUBGoJXxX-18">
          <mxGeometry width="50" height="50" relative="1" as="geometry">
            <mxPoint x="-192.9599999999998" y="382.32000000000005" as="sourcePoint" />
            <mxPoint x="-30" y="400" as="targetPoint" />
          </mxGeometry>
        </mxCell>
        <mxCell id="sKR88UAGinRUUBGoJXxX-21" value="id" style="ellipse;whiteSpace=wrap;html=1;" vertex="1" parent="1">
          <mxGeometry x="224" y="310" width="50" height="30" as="geometry" />
        </mxCell>
        <mxCell id="sKR88UAGinRUUBGoJXxX-22" value="nombre" style="ellipse;whiteSpace=wrap;html=1;" vertex="1" parent="1">
          <mxGeometry x="184" y="410" width="60" height="30" as="geometry" />
        </mxCell>
        <mxCell id="sKR88UAGinRUUBGoJXxX-23" value="apellido" style="ellipse;whiteSpace=wrap;html=1;" vertex="1" parent="1">
          <mxGeometry x="214" y="440" width="60" height="30" as="geometry" />
        </mxCell>
        <mxCell id="sKR88UAGinRUUBGoJXxX-24" value="dui" style="ellipse;whiteSpace=wrap;html=1;" vertex="1" parent="1">
          <mxGeometry x="374" y="420" width="60" height="30" as="geometry" />
        </mxCell>
        <mxCell id="sKR88UAGinRUUBGoJXxX-25" value="isss" style="ellipse;whiteSpace=wrap;html=1;" vertex="1" parent="1">
          <mxGeometry x="344" y="450" width="60" height="30" as="geometry" />
        </mxCell>
        <mxCell id="sKR88UAGinRUUBGoJXxX-26" value="telefono" style="ellipse;whiteSpace=wrap;html=1;" vertex="1" parent="1">
          <mxGeometry x="384" y="340" width="60" height="30" as="geometry" />
        </mxCell>
        <mxCell id="sKR88UAGinRUUBGoJXxX-27" value="estado" style="ellipse;whiteSpace=wrap;html=1;" vertex="1" parent="1">
          <mxGeometry x="-400" y="360" width="61" height="30" as="geometry" />
        </mxCell>
        <mxCell id="sKR88UAGinRUUBGoJXxX-29" value="" style="endArrow=classic;html=1;rounded=0;exitX=0;exitY=0;exitDx=0;exitDy=0;entryX=1;entryY=1;entryDx=0;entryDy=0;" edge="1" parent="1" target="sKR88UAGinRUUBGoJXxX-21">
          <mxGeometry width="50" height="50" relative="1" as="geometry">
            <mxPoint x="284" y="370" as="sourcePoint" />
            <mxPoint x="344" y="290" as="targetPoint" />
          </mxGeometry>
        </mxCell>
        <mxCell id="sKR88UAGinRUUBGoJXxX-32" value="" style="endArrow=classic;html=1;rounded=0;exitX=0;exitY=1;exitDx=0;exitDy=0;entryX=1;entryY=0;entryDx=0;entryDy=0;" edge="1" parent="1" target="sKR88UAGinRUUBGoJXxX-22">
          <mxGeometry width="50" height="50" relative="1" as="geometry">
            <mxPoint x="284" y="410.0000000000001" as="sourcePoint" />
            <mxPoint x="244" y="360" as="targetPoint" />
          </mxGeometry>
        </mxCell>
        <mxCell id="sKR88UAGinRUUBGoJXxX-33" value="" style="endArrow=classic;html=1;rounded=0;exitX=0.313;exitY=0.871;exitDx=0;exitDy=0;exitPerimeter=0;entryX=1;entryY=0;entryDx=0;entryDy=0;" edge="1" parent="1" target="sKR88UAGinRUUBGoJXxX-23">
          <mxGeometry width="50" height="50" relative="1" as="geometry">
            <mxPoint x="291.5600000000002" y="419.67999999999995" as="sourcePoint" />
            <mxPoint x="194" y="520" as="targetPoint" />
          </mxGeometry>
        </mxCell>
        <mxCell id="sKR88UAGinRUUBGoJXxX-35" value="" style="endArrow=classic;html=1;rounded=0;exitX=1;exitY=0;exitDx=0;exitDy=0;entryX=0;entryY=0.5;entryDx=0;entryDy=0;" edge="1" parent="1" target="sKR88UAGinRUUBGoJXxX-26">
          <mxGeometry width="50" height="50" relative="1" as="geometry">
            <mxPoint x="344" y="370" as="sourcePoint" />
            <mxPoint x="484" y="370" as="targetPoint" />
          </mxGeometry>
        </mxCell>
        <mxCell id="sKR88UAGinRUUBGoJXxX-36" value="" style="endArrow=classic;html=1;rounded=0;exitX=0.618;exitY=0.892;exitDx=0;exitDy=0;exitPerimeter=0;entryX=0;entryY=0;entryDx=0;entryDy=0;" edge="1" parent="1" target="sKR88UAGinRUUBGoJXxX-25">
          <mxGeometry width="50" height="50" relative="1" as="geometry">
            <mxPoint x="328.1600000000003" y="421.36" as="sourcePoint" />
            <mxPoint x="374" y="500" as="targetPoint" />
          </mxGeometry>
        </mxCell>
        <mxCell id="sKR88UAGinRUUBGoJXxX-37" value="" style="endArrow=classic;html=1;rounded=0;exitX=1;exitY=1;exitDx=0;exitDy=0;entryX=0;entryY=0;entryDx=0;entryDy=0;" edge="1" parent="1" target="sKR88UAGinRUUBGoJXxX-24">
          <mxGeometry width="50" height="50" relative="1" as="geometry">
            <mxPoint x="344" y="410.0000000000001" as="sourcePoint" />
            <mxPoint x="444" y="490" as="targetPoint" />
          </mxGeometry>
        </mxCell>
        <mxCell id="sKR88UAGinRUUBGoJXxX-39" value="taxi" style="rounded=0;whiteSpace=wrap;html=1;" vertex="1" parent="1">
          <mxGeometry x="-300" y="360" width="120" height="60" as="geometry" />
        </mxCell>
        <mxCell id="sKR88UAGinRUUBGoJXxX-40" value="conductor" style="rounded=0;whiteSpace=wrap;html=1;" vertex="1" parent="1">
          <mxGeometry x="254" y="360" width="120" height="60" as="geometry" />
        </mxCell>
        <mxCell id="sKR88UAGinRUUBGoJXxX-41" value="posee" style="rhombus;whiteSpace=wrap;html=1;" vertex="1" parent="1">
          <mxGeometry x="-7" y="350" width="110" height="80" as="geometry" />
        </mxCell>
        <mxCell id="sKR88UAGinRUUBGoJXxX-43" value="" style="endArrow=none;html=1;rounded=0;exitX=1;exitY=0.5;exitDx=0;exitDy=0;entryX=0;entryY=0.5;entryDx=0;entryDy=0;" edge="1" parent="1" source="sKR88UAGinRUUBGoJXxX-39" target="sKR88UAGinRUUBGoJXxX-41">
          <mxGeometry width="50" height="50" relative="1" as="geometry">
            <mxPoint x="-70" y="420" as="sourcePoint" />
            <mxPoint x="-20" y="370" as="targetPoint" />
          </mxGeometry>
        </mxCell>
        <mxCell id="sKR88UAGinRUUBGoJXxX-44" value="" style="endArrow=none;html=1;rounded=0;exitX=1;exitY=0.5;exitDx=0;exitDy=0;entryX=0;entryY=0.5;entryDx=0;entryDy=0;" edge="1" parent="1" source="sKR88UAGinRUUBGoJXxX-41" target="sKR88UAGinRUUBGoJXxX-40">
          <mxGeometry width="50" height="50" relative="1" as="geometry">
            <mxPoint x="143" y="390" as="sourcePoint" />
            <mxPoint x="193" y="340" as="targetPoint" />
          </mxGeometry>
        </mxCell>
        <mxCell id="sKR88UAGinRUUBGoJXxX-45" value="1" style="text;html=1;align=center;verticalAlign=middle;resizable=0;points=[];autosize=1;strokeColor=none;fillColor=none;" vertex="1" parent="1">
          <mxGeometry x="-180" y="370" width="30" height="30" as="geometry" />
        </mxCell>
        <mxCell id="sKR88UAGinRUUBGoJXxX-46" value="1" style="text;html=1;align=center;verticalAlign=middle;resizable=0;points=[];autosize=1;strokeColor=none;fillColor=none;" vertex="1" parent="1">
          <mxGeometry x="224" y="370" width="30" height="30" as="geometry" />
        </mxCell>
        <mxCell id="sKR88UAGinRUUBGoJXxX-47" value="viaje" style="rounded=0;whiteSpace=wrap;html=1;" vertex="1" parent="1">
          <mxGeometry x="-300" y="720" width="120" height="60" as="geometry" />
        </mxCell>
        <mxCell id="sKR88UAGinRUUBGoJXxX-48" value="cliente" style="rounded=0;whiteSpace=wrap;html=1;" vertex="1" parent="1">
          <mxGeometry x="264" y="720" width="120" height="60" as="geometry" />
        </mxCell>
        <mxCell id="sKR88UAGinRUUBGoJXxX-49" value="posee" style="rhombus;whiteSpace=wrap;html=1;" vertex="1" parent="1">
          <mxGeometry x="-295" y="530" width="110" height="80" as="geometry" />
        </mxCell>
        <mxCell id="sKR88UAGinRUUBGoJXxX-51" value="" style="endArrow=none;html=1;rounded=0;exitX=0.5;exitY=1;exitDx=0;exitDy=0;entryX=0.5;entryY=0;entryDx=0;entryDy=0;" edge="1" parent="1" source="sKR88UAGinRUUBGoJXxX-39" target="sKR88UAGinRUUBGoJXxX-49">
          <mxGeometry width="50" height="50" relative="1" as="geometry">
            <mxPoint x="-250" y="520" as="sourcePoint" />
            <mxPoint x="-200" y="470" as="targetPoint" />
          </mxGeometry>
        </mxCell>
        <mxCell id="sKR88UAGinRUUBGoJXxX-52" value="" style="endArrow=none;html=1;rounded=0;entryX=0.5;entryY=1;entryDx=0;entryDy=0;exitX=0.5;exitY=0;exitDx=0;exitDy=0;" edge="1" parent="1" source="sKR88UAGinRUUBGoJXxX-47" target="sKR88UAGinRUUBGoJXxX-49">
          <mxGeometry width="50" height="50" relative="1" as="geometry">
            <mxPoint x="-240" y="690" as="sourcePoint" />
            <mxPoint x="-190" y="640" as="targetPoint" />
          </mxGeometry>
        </mxCell>
        <mxCell id="sKR88UAGinRUUBGoJXxX-53" value="1" style="text;html=1;align=center;verticalAlign=middle;resizable=0;points=[];autosize=1;strokeColor=none;fillColor=none;" vertex="1" parent="1">
          <mxGeometry x="-240" y="420" width="30" height="30" as="geometry" />
        </mxCell>
        <mxCell id="sKR88UAGinRUUBGoJXxX-54" value="1" style="text;html=1;align=center;verticalAlign=middle;resizable=0;points=[];autosize=1;strokeColor=none;fillColor=none;" vertex="1" parent="1">
          <mxGeometry x="-240" y="690" width="30" height="30" as="geometry" />
        </mxCell>
        <mxCell id="sKR88UAGinRUUBGoJXxX-55" value="id" style="ellipse;whiteSpace=wrap;html=1;" vertex="1" parent="1">
          <mxGeometry x="-140" y="670" width="50" height="30" as="geometry" />
        </mxCell>
        <mxCell id="sKR88UAGinRUUBGoJXxX-57" value="" style="endArrow=classic;html=1;rounded=0;exitX=1;exitY=0.25;exitDx=0;exitDy=0;entryX=0;entryY=1;entryDx=0;entryDy=0;" edge="1" parent="1" source="sKR88UAGinRUUBGoJXxX-47" target="sKR88UAGinRUUBGoJXxX-55">
          <mxGeometry width="50" height="50" relative="1" as="geometry">
            <mxPoint x="-170" y="770" as="sourcePoint" />
            <mxPoint x="-120" y="720" as="targetPoint" />
          </mxGeometry>
        </mxCell>
        <mxCell id="sKR88UAGinRUUBGoJXxX-58" value="cliente" style="ellipse;whiteSpace=wrap;html=1;fontStyle=4" vertex="1" parent="1">
          <mxGeometry x="-270" y="830" width="64.96" height="30" as="geometry" />
        </mxCell>
        <mxCell id="sKR88UAGinRUUBGoJXxX-59" value="" style="endArrow=classic;html=1;rounded=0;exitX=0.5;exitY=1;exitDx=0;exitDy=0;entryX=0.5;entryY=0;entryDx=0;entryDy=0;" edge="1" parent="1" source="sKR88UAGinRUUBGoJXxX-47" target="sKR88UAGinRUUBGoJXxX-58">
          <mxGeometry width="50" height="50" relative="1" as="geometry">
            <mxPoint x="40" y="660" as="sourcePoint" />
            <mxPoint x="90" y="610" as="targetPoint" />
          </mxGeometry>
        </mxCell>
        <mxCell id="sKR88UAGinRUUBGoJXxX-60" value="taxi" style="ellipse;whiteSpace=wrap;html=1;fontStyle=4" vertex="1" parent="1">
          <mxGeometry x="-414.96" y="670" width="64.96" height="30" as="geometry" />
        </mxCell>
        <mxCell id="sKR88UAGinRUUBGoJXxX-61" value="" style="endArrow=classic;html=1;rounded=0;entryX=1;entryY=1;entryDx=0;entryDy=0;exitX=0;exitY=0.25;exitDx=0;exitDy=0;" edge="1" parent="1" source="sKR88UAGinRUUBGoJXxX-47" target="sKR88UAGinRUUBGoJXxX-60">
          <mxGeometry width="50" height="50" relative="1" as="geometry">
            <mxPoint x="-340" y="740" as="sourcePoint" />
            <mxPoint x="-290" y="690" as="targetPoint" />
          </mxGeometry>
        </mxCell>
        <mxCell id="sKR88UAGinRUUBGoJXxX-62" value="costo" style="ellipse;whiteSpace=wrap;html=1;" vertex="1" parent="1">
          <mxGeometry x="-420" y="720" width="50" height="30" as="geometry" />
        </mxCell>
        <mxCell id="sKR88UAGinRUUBGoJXxX-63" value="" style="endArrow=classic;html=1;rounded=0;entryX=1;entryY=0.5;entryDx=0;entryDy=0;exitX=0;exitY=0.5;exitDx=0;exitDy=0;" edge="1" parent="1" source="sKR88UAGinRUUBGoJXxX-47" target="sKR88UAGinRUUBGoJXxX-62">
          <mxGeometry width="50" height="50" relative="1" as="geometry">
            <mxPoint x="-350" y="830" as="sourcePoint" />
            <mxPoint x="-300" y="780" as="targetPoint" />
          </mxGeometry>
        </mxCell>
        <mxCell id="sKR88UAGinRUUBGoJXxX-64" value="estado" style="ellipse;whiteSpace=wrap;html=1;" vertex="1" parent="1">
          <mxGeometry x="-124.95999999999998" y="800" width="50" height="30" as="geometry" />
        </mxCell>
        <mxCell id="sKR88UAGinRUUBGoJXxX-65" value="" style="endArrow=classic;html=1;rounded=0;exitX=1;exitY=0.75;exitDx=0;exitDy=0;entryX=0;entryY=0;entryDx=0;entryDy=0;" edge="1" parent="1" source="sKR88UAGinRUUBGoJXxX-47" target="sKR88UAGinRUUBGoJXxX-64">
          <mxGeometry width="50" height="50" relative="1" as="geometry">
            <mxPoint x="-120" y="780" as="sourcePoint" />
            <mxPoint x="-70" y="730" as="targetPoint" />
          </mxGeometry>
        </mxCell>
        <mxCell id="sKR88UAGinRUUBGoJXxX-66" value="partida" style="ellipse;whiteSpace=wrap;html=1;" vertex="1" parent="1">
          <mxGeometry x="-414.96" y="770" width="50" height="30" as="geometry" />
        </mxCell>
        <mxCell id="sKR88UAGinRUUBGoJXxX-67" value="destino" style="ellipse;whiteSpace=wrap;html=1;" vertex="1" parent="1">
          <mxGeometry x="-380" y="815" width="50" height="30" as="geometry" />
        </mxCell>
        <mxCell id="sKR88UAGinRUUBGoJXxX-68" value="" style="endArrow=classic;html=1;rounded=0;entryX=1;entryY=0.5;entryDx=0;entryDy=0;exitX=0;exitY=0.75;exitDx=0;exitDy=0;" edge="1" parent="1" source="sKR88UAGinRUUBGoJXxX-47" target="sKR88UAGinRUUBGoJXxX-66">
          <mxGeometry width="50" height="50" relative="1" as="geometry">
            <mxPoint x="-260" y="900" as="sourcePoint" />
            <mxPoint x="-210" y="850" as="targetPoint" />
          </mxGeometry>
        </mxCell>
        <mxCell id="sKR88UAGinRUUBGoJXxX-69" value="" style="endArrow=classic;html=1;rounded=0;entryX=1;entryY=0;entryDx=0;entryDy=0;exitX=0;exitY=1;exitDx=0;exitDy=0;" edge="1" parent="1" source="sKR88UAGinRUUBGoJXxX-47" target="sKR88UAGinRUUBGoJXxX-67">
          <mxGeometry width="50" height="50" relative="1" as="geometry">
            <mxPoint x="-270" y="880" as="sourcePoint" />
            <mxPoint x="-220" y="830" as="targetPoint" />
          </mxGeometry>
        </mxCell>
        <mxCell id="sKR88UAGinRUUBGoJXxX-70" value="posee" style="rhombus;whiteSpace=wrap;html=1;" vertex="1" parent="1">
          <mxGeometry x="-6" y="710" width="110" height="80" as="geometry" />
        </mxCell>
        <mxCell id="sKR88UAGinRUUBGoJXxX-71" value="" style="endArrow=none;html=1;rounded=0;exitX=1;exitY=0.5;exitDx=0;exitDy=0;entryX=0;entryY=0.5;entryDx=0;entryDy=0;" edge="1" parent="1" source="sKR88UAGinRUUBGoJXxX-47" target="sKR88UAGinRUUBGoJXxX-70">
          <mxGeometry width="50" height="50" relative="1" as="geometry">
            <mxPoint x="-80" y="780" as="sourcePoint" />
            <mxPoint x="-30" y="730" as="targetPoint" />
          </mxGeometry>
        </mxCell>
        <mxCell id="sKR88UAGinRUUBGoJXxX-72" value="" style="endArrow=none;html=1;rounded=0;exitX=1;exitY=0.5;exitDx=0;exitDy=0;entryX=0;entryY=0.5;entryDx=0;entryDy=0;" edge="1" parent="1" source="sKR88UAGinRUUBGoJXxX-70" target="sKR88UAGinRUUBGoJXxX-48">
          <mxGeometry width="50" height="50" relative="1" as="geometry">
            <mxPoint x="154" y="740" as="sourcePoint" />
            <mxPoint x="204" y="690" as="targetPoint" />
          </mxGeometry>
        </mxCell>
        <mxCell id="sKR88UAGinRUUBGoJXxX-73" value="1" style="text;html=1;align=center;verticalAlign=middle;resizable=0;points=[];autosize=1;strokeColor=none;fillColor=none;" vertex="1" parent="1">
          <mxGeometry x="-180" y="730" width="30" height="30" as="geometry" />
        </mxCell>
        <mxCell id="sKR88UAGinRUUBGoJXxX-74" value="1" style="text;html=1;align=center;verticalAlign=middle;resizable=0;points=[];autosize=1;strokeColor=none;fillColor=none;" vertex="1" parent="1">
          <mxGeometry x="234" y="730" width="30" height="30" as="geometry" />
        </mxCell>
        <mxCell id="sKR88UAGinRUUBGoJXxX-75" value="id" style="ellipse;whiteSpace=wrap;html=1;" vertex="1" parent="1">
          <mxGeometry x="254" y="640" width="50" height="30" as="geometry" />
        </mxCell>
        <mxCell id="sKR88UAGinRUUBGoJXxX-76" value="" style="endArrow=classic;html=1;rounded=0;entryX=0.5;entryY=1;entryDx=0;entryDy=0;exitX=0.25;exitY=0;exitDx=0;exitDy=0;" edge="1" parent="1" source="sKR88UAGinRUUBGoJXxX-48" target="sKR88UAGinRUUBGoJXxX-75">
          <mxGeometry width="50" height="50" relative="1" as="geometry">
            <mxPoint x="335" y="730" as="sourcePoint" />
            <mxPoint x="385" y="680" as="targetPoint" />
          </mxGeometry>
        </mxCell>
        <mxCell id="sKR88UAGinRUUBGoJXxX-77" value="nombre" style="ellipse;whiteSpace=wrap;html=1;" vertex="1" parent="1">
          <mxGeometry x="324" y="640" width="50" height="30" as="geometry" />
        </mxCell>
        <mxCell id="sKR88UAGinRUUBGoJXxX-78" value="apellido" style="ellipse;whiteSpace=wrap;html=1;" vertex="1" parent="1">
          <mxGeometry x="389" y="660" width="50" height="30" as="geometry" />
        </mxCell>
        <mxCell id="sKR88UAGinRUUBGoJXxX-79" value="" style="endArrow=classic;html=1;rounded=0;exitX=0.5;exitY=0;exitDx=0;exitDy=0;entryX=0.5;entryY=1;entryDx=0;entryDy=0;" edge="1" parent="1" source="sKR88UAGinRUUBGoJXxX-48" target="sKR88UAGinRUUBGoJXxX-77">
          <mxGeometry width="50" height="50" relative="1" as="geometry">
            <mxPoint x="365" y="890" as="sourcePoint" />
            <mxPoint x="415" y="840" as="targetPoint" />
          </mxGeometry>
        </mxCell>
        <mxCell id="sKR88UAGinRUUBGoJXxX-80" value="" style="endArrow=classic;html=1;rounded=0;exitX=0.75;exitY=0;exitDx=0;exitDy=0;entryX=0;entryY=1;entryDx=0;entryDy=0;" edge="1" parent="1" source="sKR88UAGinRUUBGoJXxX-48" target="sKR88UAGinRUUBGoJXxX-78">
          <mxGeometry width="50" height="50" relative="1" as="geometry">
            <mxPoint x="445" y="820" as="sourcePoint" />
            <mxPoint x="495" y="770" as="targetPoint" />
          </mxGeometry>
        </mxCell>
      </root>
    </mxGraphModel>
  </diagram>
</mxfile>
